<!--?xml version="1.0" standalone="no"?-->
              <svg id="sw-js-blob-svg" viewBox="0 0 100 100" xmlns="http://www.w3.org/2000/svg" version="1.1">
                    <defs> 
                        <linearGradient id="sw-gradient" x1="0" x2="1" y1="1" y2="0">
                            <stop id="stop1" stop-color="rgba(255, 110.316, 41.84, 1)" offset="0%"></stop>
                            <stop id="stop2" stop-color="rgba(251, 168, 31, 1)" offset="100%"></stop>
                        </linearGradient>
                    </defs>
                <path fill="url(#sw-gradient)" d="M8.2,-21.4C9.2,-13.7,7.6,-8.6,11,-5.4C14.5,-2.3,22.9,-1.2,26.1,1.8C29.2,4.8,27,9.5,23.6,12.7C20.2,15.9,15.6,17.5,11.5,16.5C7.3,15.6,3.7,12.2,-0.4,12.8C-4.4,13.5,-8.8,18.1,-15.9,20.8C-23,23.4,-32.9,24.1,-35.2,20.3C-37.4,16.5,-32.1,8.2,-27.3,2.8C-22.6,-2.7,-18.3,-5.4,-15.5,-8.3C-12.7,-11.1,-11.2,-14,-8.9,-21C-6.5,-28,-3.3,-38.9,0.2,-39.2C3.6,-39.5,7.2,-29.1,8.2,-21.4Z" width="100%" height="100%" transform="translate(50 50)" stroke-width="0" style="transition: all 0.3s ease 0s;" stroke="url(#sw-gradient)"></path>
              </svg>